<svg width="222" height="65" viewBox="0 0 222 65" fill="none" xmlns="http://www.w3.org/2000/svg">
<g filter="url(#filter0_d_177_10372)">
<rect x="4" width="214" height="57" rx="8" fill="#DE9200" shape-rendering="crispEdges"/>
<path d="M33.6 17.64V43H37.4V17.64H46.92V14.44H24.08V17.64H33.6ZM55.7988 18.6V14.44H52.3988V18.6H55.7988ZM52.3988 22.32V43H55.7988V22.32H52.3988ZM81.5759 41.24V22.32H78.3759V25.28H78.3359C77.7226 24.1333 76.8693 23.28 75.7759 22.72C74.6826 22.1333 73.4826 21.84 72.1759 21.84C70.3893 21.84 68.8826 22.1867 67.6559 22.88C66.4293 23.5467 65.4426 24.4133 64.6959 25.48C63.9493 26.52 63.4159 27.6933 63.0959 29C62.7759 30.28 62.6159 31.5333 62.6159 32.76C62.6159 34.1733 62.8026 35.52 63.1759 36.8C63.5759 38.0533 64.1626 39.16 64.9359 40.12C65.7093 41.0533 66.6693 41.8 67.8159 42.36C68.9626 42.92 70.3093 43.2 71.8559 43.2C73.1893 43.2 74.4426 42.9067 75.6159 42.32C76.8159 41.7067 77.7093 40.76 78.2959 39.48H78.3759V40.84C78.3759 41.9867 78.2559 43.04 78.0159 44C77.8026 44.96 77.4426 45.7733 76.9359 46.44C76.4293 47.1333 75.7893 47.6667 75.0159 48.04C74.2426 48.44 73.2959 48.64 72.1759 48.64C71.6159 48.64 71.0293 48.5733 70.4159 48.44C69.8026 48.3333 69.2293 48.1467 68.6959 47.88C68.1893 47.6133 67.7493 47.2667 67.3759 46.84C67.0293 46.4133 66.8426 45.8933 66.8159 45.28H63.4159C63.4693 46.4 63.7626 47.3467 64.2959 48.12C64.8293 48.8933 65.4959 49.52 66.2959 50C67.1226 50.48 68.0293 50.8267 69.0159 51.04C70.0293 51.2533 71.0159 51.36 71.9759 51.36C75.2826 51.36 77.7093 50.52 79.2559 48.84C80.8026 47.16 81.5759 44.6267 81.5759 41.24ZM72.0559 40.24C70.9359 40.24 70.0026 40.0133 69.2559 39.56C68.5093 39.08 67.9093 38.4667 67.4559 37.72C67.0026 36.9467 66.6826 36.0933 66.4959 35.16C66.3093 34.2267 66.2159 33.2933 66.2159 32.36C66.2159 31.3733 66.3226 30.4267 66.5359 29.52C66.7759 28.6133 67.1359 27.8133 67.6159 27.12C68.1226 26.4267 68.7626 25.88 69.5359 25.48C70.3093 25.0533 71.2426 24.84 72.3359 24.84C73.4026 24.84 74.3093 25.0533 75.0559 25.48C75.8026 25.9067 76.4026 26.48 76.8559 27.2C77.3359 27.8933 77.6826 28.68 77.8959 29.56C78.1093 30.44 78.2159 31.3333 78.2159 32.24C78.2159 33.2 78.0959 34.16 77.8559 35.12C77.6426 36.08 77.2959 36.9467 76.8159 37.72C76.3359 38.4667 75.6959 39.08 74.8959 39.56C74.1226 40.0133 73.1759 40.24 72.0559 40.24ZM103.735 30.68H91.8547C91.908 29.88 92.0814 29.1333 92.3747 28.44C92.668 27.72 93.068 27.0933 93.5747 26.56C94.0814 26.0267 94.6814 25.6133 95.3747 25.32C96.0947 25 96.8947 24.84 97.7747 24.84C98.628 24.84 99.4014 25 100.095 25.32C100.815 25.6133 101.428 26.0267 101.935 26.56C102.468 27.0667 102.881 27.68 103.175 28.4C103.495 29.12 103.681 29.88 103.735 30.68ZM107.015 36.44H103.655C103.361 37.8 102.748 38.8133 101.815 39.48C100.908 40.1467 99.7347 40.48 98.2947 40.48C97.1747 40.48 96.2014 40.2933 95.3747 39.92C94.548 39.5467 93.868 39.0533 93.3347 38.44C92.8014 37.8 92.4147 37.08 92.1747 36.28C91.9347 35.4533 91.828 34.5867 91.8547 33.68H107.335C107.388 32.4267 107.268 31.1067 106.975 29.72C106.708 28.3333 106.201 27.0533 105.455 25.88C104.735 24.7067 103.761 23.7467 102.535 23C101.335 22.2267 99.8147 21.84 97.9747 21.84C96.5614 21.84 95.2547 22.1067 94.0547 22.64C92.8814 23.1733 91.8547 23.92 90.9747 24.88C90.1214 25.84 89.4547 26.9733 88.9747 28.28C88.4947 29.5867 88.2547 31.0267 88.2547 32.6C88.308 34.1733 88.5347 35.6267 88.9347 36.96C89.3614 38.2933 89.988 39.44 90.8147 40.4C91.6414 41.36 92.6547 42.1067 93.8547 42.64C95.0814 43.1733 96.5214 43.44 98.1747 43.44C100.521 43.44 102.468 42.8533 104.015 41.68C105.561 40.5067 106.561 38.76 107.015 36.44ZM113.409 22.32V43H116.809V33.8C116.809 32.4667 116.942 31.2933 117.209 30.28C117.476 29.24 117.902 28.36 118.489 27.64C119.076 26.92 119.849 26.3733 120.809 26C121.769 25.6267 122.929 25.44 124.289 25.44V21.84C122.449 21.7867 120.929 22.16 119.729 22.96C118.529 23.76 117.516 25 116.689 26.68H116.609V22.32H113.409ZM126.772 30.28V33.48H138.332V30.28H126.772ZM145.749 14.44V43H149.149V14.44H145.749ZM160.686 18.6V14.44H157.286V18.6H160.686ZM157.286 22.32V43H160.686V22.32H157.286ZM168.823 14.44V43H172.223V14.44H168.823ZM188.28 45.76C187.88 46.7733 187.48 47.6267 187.08 48.32C186.707 49.0133 186.28 49.5733 185.8 50C185.347 50.4533 184.827 50.7733 184.24 50.96C183.68 51.1733 183.027 51.28 182.28 51.28C181.88 51.28 181.48 51.2533 181.08 51.2C180.68 51.1467 180.294 51.0533 179.92 50.92V47.8C180.214 47.9333 180.547 48.04 180.92 48.12C181.32 48.2267 181.654 48.28 181.92 48.28C182.614 48.28 183.187 48.1067 183.64 47.76C184.12 47.44 184.48 46.9733 184.72 46.36L186.12 42.88L177.92 22.32H181.76L187.8 39.24H187.88L193.68 22.32H197.28L188.28 45.76Z" fill="black"/>
</g>
<defs>
<filter id="filter0_d_177_10372" x="0" y="0" width="222" height="65" filterUnits="userSpaceOnUse" color-interpolation-filters="sRGB">
<feFlood flood-opacity="0" result="BackgroundImageFix"/>
<feColorMatrix in="SourceAlpha" type="matrix" values="0 0 0 0 0 0 0 0 0 0 0 0 0 0 0 0 0 0 127 0" result="hardAlpha"/>
<feOffset dy="4"/>
<feGaussianBlur stdDeviation="2"/>
<feComposite in2="hardAlpha" operator="out"/>
<feColorMatrix type="matrix" values="0 0 0 0 0 0 0 0 0 0 0 0 0 0 0 0 0 0 0.25 0"/>
<feBlend mode="normal" in2="BackgroundImageFix" result="effect1_dropShadow_177_10372"/>
<feBlend mode="normal" in="SourceGraphic" in2="effect1_dropShadow_177_10372" result="shape"/>
</filter>
</defs>
</svg>
